HIERARCHY
ROOT Hips
{
	OFFSET 0.00 0.00 0.00
	CHANNELS 6 Xposition Yposition Zposition Zrotation Xrotation Yrotation
	JOINT Chest
	{
		OFFSET 0.00000 8.11775 0.00000
		CHANNELS 3 Zrotation Xrotation Yrotation
		JOINT Chest2
		{
			OFFSET 0.00000 9.64807 0.00000
			CHANNELS 3 Zrotation Xrotation Yrotation
			JOINT Chest3
			{
				OFFSET 0.00000 9.64807 0.00000
				CHANNELS 3 Zrotation Xrotation Yrotation
				JOINT Chest4
				{
					OFFSET 0.00000 9.88146 0.00000
					CHANNELS 3 Zrotation Xrotation Yrotation
					JOINT Neck
					{
						OFFSET 0.00000 16.40048 0.00000
						CHANNELS 3 Zrotation Xrotation Yrotation
						JOINT Head
						{
							OFFSET 0.00000 10.49562 0.00000
							CHANNELS 3 Zrotation Xrotation Yrotation
							End Site
							{
								OFFSET 0.00000 15.96128 0.00000
							}
						}
					}
					JOINT RightCollar
					{
						OFFSET -2.41754 10.88314 0.54774
						CHANNELS 3 Zrotation Xrotation Yrotation
						JOINT RightShoulder
						{
							OFFSET -10.75719 0.00000 0.00000
							CHANNELS 3 Zrotation Xrotation Yrotation
							JOINT RightElbow
							{
								OFFSET 0.00000 -30.98310 0.00000
								CHANNELS 3 Zrotation Xrotation Yrotation
								JOINT RightWrist
								{
									OFFSET 0.00000 -25.02345 0.00000
									CHANNELS 3 Zrotation Xrotation Yrotation
									End Site
									{
										OFFSET 0.00000 -7.81714 0.00000
									}
								}
							}
						}
					}
					JOINT LeftCollar
					{
						OFFSET 2.41754 10.88314 0.54774
						CHANNELS 3 Zrotation Xrotation Yrotation
						JOINT LeftShoulder
						{
							OFFSET 10.75719 0.00000 0.00000
							CHANNELS 3 Zrotation Xrotation Yrotation
							JOINT LeftElbow
							{
								OFFSET 0.00000 -30.98310 0.00000
								CHANNELS 3 Zrotation Xrotation Yrotation
								JOINT LeftWrist
								{
									OFFSET 0.00000 -25.02345 0.00000
									CHANNELS 3 Zrotation Xrotation Yrotation
									End Site
									{
										OFFSET 0.00000 -7.81714 0.00000
									}
								}
							}
						}
					}
				}
			}
		}
	}
	JOINT RightHip
	{
		OFFSET -8.67066 -4.59659 2.26727
		CHANNELS 3 Zrotation Xrotation Yrotation
		JOINT RightKnee
		{
			OFFSET 0.00000 -40.29415 -0.00000
			CHANNELS 3 Zrotation Xrotation Yrotation
			JOINT RightAnkle
			{
				OFFSET 0.00000 -39.18889 0.00000
				CHANNELS 3 Zrotation Xrotation Yrotation
				JOINT RightToe
				{
					OFFSET 0.00000 -6.65534 11.52740
					CHANNELS 3 Zrotation Xrotation Yrotation
					End Site
					{
						OFFSET -0.00000 0.00000 8.50196
					}
				}
			}
		}
	}
	JOINT LeftHip
	{
		OFFSET 8.67066 -4.59659 2.26727
		CHANNELS 3 Zrotation Xrotation Yrotation
		JOINT LeftKnee
		{
			OFFSET 0.00000 -40.29415 -0.00000
			CHANNELS 3 Zrotation Xrotation Yrotation
			JOINT LeftAnkle
			{
				OFFSET 0.00000 -39.18889 0.00000
				CHANNELS 3 Zrotation Xrotation Yrotation
				JOINT LeftToe
				{
					OFFSET 0.00000 -6.65534 11.52740
					CHANNELS 3 Zrotation Xrotation Yrotation
					End Site
					{
						OFFSET -0.00000 0.00000 8.50196
					}
				}
			}
		}
	}
}
MOTION
Frames: 21
Frame Time: 0.033367
 91.2187 91.7535 23.7073 5.3366 -1.8533 2.2282 -8.3782 1.9516 0.9455 1.6908 -0.2856 -1.0541 0.5130 -0.0013 -1.0911 0.9285 0.4756 -0.6323 0.8863 0.7845 -6.3258 -2.6676 -1.9067 -10.1094 -16.9726 -4.0122 0.1857 -73.9890 6.5612 -47.7210 -0.0000 -7.0817 -0.0000 -7.6217 4.7032 46.6484 14.4378 -6.7243 -0.3355 75.0188 4.5578 58.5251 -0.0000 -8.1493 -0.0000 8.9912 8.8660 -28.4367 -12.1150 -11.5900 9.5712 0.0000 30.6078 -0.0000 2.8416 -15.1218 -10.5862 -0.0000 2.9012 -0.0000 -8.9972 2.8389 -4.3104 0.0000 1.8533 -0.0000 -1.1856 -4.3090 7.2263 0.0000 5.4021 -0.0000
 91.1787 91.7290 23.7967 5.4277 -2.1207 2.8186 -8.4263 2.0545 0.9638 1.6949 -0.2374 -1.1563 0.4981 0.0512 -1.2770 0.9252 0.5227 -0.7274 0.3619 1.2611 -6.4783 -2.6609 -1.8890 -10.4238 -17.1795 -4.1384 0.1877 -73.8365 6.9886 -47.7356 0.0000 -7.2442 0.0000 -7.5283 4.9884 46.5797 14.2905 -6.8215 -0.4876 74.9467 4.2942 58.0620 0.0000 -8.1171 0.0000 8.6240 8.9694 -28.2651 -11.5837 -12.1905 8.9160 0.0000 32.9309 -0.0000 1.0672 -16.0765 -11.3826 -0.0000 2.2494 -0.0000 -9.0263 3.1726 -4.2457 -0.0000 1.9263 -0.0000 -1.2476 -4.3394 6.6314 0.0000 5.3807 -0.0000
 91.0366 91.7439 23.9484 5.3223 -2.2538 3.4513 -8.2895 2.0750 0.9500 1.6698 -0.2762 -1.2136 0.4728 0.0043 -1.3948 0.8965 0.5613 -0.8172 -0.1053 1.7919 -6.8175 -2.6846 -1.7541 -10.7932 -17.0807 -4.0822 -0.0714 -73.9661 7.1391 -48.1192 0.0000 -7.3667 0.0000 -7.5354 5.1835 46.8567 14.1219 -6.9142 -0.7056 74.9141 4.0597 57.7534 0.0000 -8.0113 0.0000 8.3135 8.9025 -28.2503 -10.6491 -12.6577 8.2437 0.0000 34.9124 -0.0000 1.6399 -17.7784 -10.1988 0.0000 2.6539 -0.0000 -8.7745 3.3584 -4.1082 -0.0000 2.0823 -0.0000 -1.3826 -4.4368 5.8781 -0.0000 5.3424 -0.0000
 90.8036 91.7694 24.1930 5.2069 -2.3193 4.1567 -8.2627 1.9475 0.9197 1.6963 -0.2895 -1.2787 0.4794 -0.0946 -1.5055 0.8395 0.5949 -0.9246 -0.4690 2.3323 -7.2384 -2.8897 -1.5081 -11.1691 -16.8727 -4.0057 -0.3878 -74.2736 7.0843 -48.1824 0.0000 -7.2276 0.0000 -7.5258 5.1078 46.8421 14.0501 -6.9803 -0.8904 74.7693 3.8973 57.5945 -0.0000 -8.1426 -0.0000 8.3228 9.1140 -28.1247 -9.5913 -12.6959 7.2583 0.0000 35.8715 -0.0000 3.1532 -18.5244 -7.1653 0.0000 2.2802 -0.0000 -8.4388 3.5674 -4.1161 0.0000 2.1669 -0.0000 -1.5790 -4.5381 5.1769 0.0000 5.3288 -0.0000
 90.4968 91.7915 24.5257 5.1547 -2.3534 4.8387 -8.3549 1.7338 0.8938 1.7596 -0.3023 -1.4086 0.4254 -0.2232 -1.6827 0.7529 0.6269 -1.0273 -0.6529 2.7940 -7.4859 -3.2883 -1.1226 -11.4789 -16.6036 -4.0203 -0.4535 -74.5957 7.0659 -48.0221 0.0000 -7.0312 0.0000 -7.3472 4.9502 46.4318 14.1492 -6.9976 -0.8233 74.6450 3.7561 57.6216 -0.0000 -8.1963 -0.0000 8.6236 9.0905 -28.0617 -8.4737 -12.0257 6.0080 0.0000 35.0131 -0.0000 3.0926 -17.2973 -5.2404 0.0000 2.8687 -0.0000 -8.1064 3.8538 -4.0879 0.0000 2.1382 -0.0000 -1.8223 -4.6212 4.4582 -0.0000 5.3679 -0.0000
 90.1810 91.8105 24.9128 5.1802 -2.1494 5.4212 -8.5068 1.3543 0.9123 1.7847 -0.3765 -1.5290 0.3915 -0.4784 -1.8465 0.7678 0.6660 -1.0914 -1.1002 3.1580 -7.5487 -3.5519 -0.6772 -11.8327 -16.6060 -4.0509 -0.4603 -74.8072 7.1173 -47.9534 0.0000 -6.7858 -0.0000 -7.3209 4.6685 46.0054 14.0728 -6.9355 -0.6439 74.6646 3.6141 57.5012 0.0000 -8.1712 0.0000 8.7561 9.0392 -27.8221 -7.7557 -11.1841 4.4796 0.0000 33.5376 -0.0000 0.9862 -16.8400 -9.1613 -0.0000 1.4579 -0.0000 -7.8680 3.9558 -4.0565 -0.0000 2.0480 -0.0000 -2.0451 -4.6804 3.8106 0.0000 5.4636 -0.0000
 89.9076 91.8867 25.3209 4.8978 -1.7826 5.8979 -8.0231 0.8791 0.8315 1.6649 -0.4907 -1.5122 0.4000 -0.8000 -1.8711 0.5692 0.6827 -1.1153 -1.6566 3.2740 -7.6179 -3.7365 -0.2198 -12.1674 -16.4202 -4.0205 -0.6157 -75.1261 7.2217 -48.1977 -0.0000 -6.8513 -0.0000 -7.4503 4.5124 45.8766 13.8406 -6.7240 -0.4579 74.7485 3.4357 57.5719 -0.0000 -8.1958 -0.0000 8.7658 8.9230 -27.6001 -7.5087 -9.7533 2.3877 0.0000 31.0150 -0.0000 -0.1475 -18.0432 -10.2577 0.0000 3.0363 -0.0000 -7.3641 3.8838 -4.1791 -0.0000 1.9190 -0.0000 -2.1998 -4.7072 3.3968 0.0000 5.5763 -0.0000
 89.5976 92.0895 25.7131 3.8413 -1.4951 6.1917 -6.7105 0.3810 0.6876 1.6367 -0.5234 -1.4095 0.4804 -1.0548 -1.7222 0.1860 0.6834 -1.0609 -1.9287 3.0112 -7.6875 -4.2765 0.1701 -12.5031 -15.7250 -4.2371 -0.8267 -76.0387 7.3321 -48.2584 0.0000 -6.6891 0.0000 -7.4532 4.5042 45.9718 13.4207 -6.6443 -0.2456 74.8961 3.3083 57.7624 0.0000 -8.2986 0.0000 8.6481 8.9238 -27.5713 -6.7768 -7.6742 0.2241 0.0000 27.0754 -0.0000 0.1705 -18.3011 -8.4691 0.0000 3.9782 -0.0000 -6.0394 3.6707 -4.1351 -0.0000 2.0173 -0.0000 -2.3850 -4.8318 2.9780 0.0000 5.6820 -0.0000
 89.2360 92.3696 26.0759 2.2342 -1.4034 6.1300 -5.0945 0.1813 0.5796 1.8193 -0.6627 -1.2555 0.7033 -1.3472 -1.4097 -0.1021 0.6750 -0.8800 -2.0963 2.7006 -7.6852 -4.8444 0.2676 -12.8038 -15.2514 -4.3097 -0.9053 -76.6836 7.5373 -48.3703 -0.0000 -6.6957 -0.0000 -7.4980 4.3725 45.8840 12.9411 -6.6510 -0.0803 75.0243 3.3141 57.9861 0.0000 -8.1477 -0.0000 8.2713 9.3442 -27.5385 -4.8237 -5.1125 0.6309 0.0000 22.0801 -0.0000 0.1413 -17.2931 -8.5234 0.0000 4.3561 -0.0000 -4.1040 3.4109 -3.7591 0.0000 2.4349 -0.0000 -2.6348 -5.1293 2.5715 0.0000 5.7627 -0.0000
 88.8863 92.6436 26.3638 0.6384 -1.1789 5.8860 -3.7399 -0.0433 0.5280 2.1365 -0.7951 -1.1171 0.9943 -1.6735 -1.0399 -0.2405 0.6489 -0.6601 -2.2646 2.3620 -7.6096 -5.0556 0.1526 -13.0672 -14.8854 -3.9817 -1.0296 -77.0635 7.5009 -48.4910 -0.0000 -7.0539 -0.0000 -7.6299 4.4974 45.6551 12.4843 -6.6587 -0.0076 75.2647 3.4457 58.1786 -0.0000 -7.6784 -0.0000 8.2153 9.4889 -27.4366 -2.7716 -2.9264 1.7037 0.0000 17.2159 -0.0000 -0.3008 -15.4782 -9.4885 0.0000 4.2626 -0.0000 -2.2132 2.8960 -3.3488 0.0000 3.0070 -0.0000 -2.8811 -5.4643 2.3088 -0.0000 5.8023 -0.0000
 88.5524 92.8144 26.6146 -0.4374 -1.1148 5.5804 -2.7745 -0.0696 0.5239 2.1359 -0.8050 -1.0041 1.0923 -1.8978 -0.8112 -0.2250 0.6433 -0.4961 -1.8539 1.7425 -7.5131 -5.2480 -0.1109 -13.2330 -14.3687 -4.1326 -1.1058 -77.5018 7.1109 -48.1223 -0.0000 -6.9968 -0.0000 -7.7364 4.4405 45.5584 12.4629 -6.6852 0.2386 75.5163 3.7335 58.6057 0.0000 -7.5964 0.0000 8.3522 9.5389 -26.9849 -1.4706 -0.7609 1.6436 0.0000 12.7897 -0.0000 -0.5368 -13.8204 -9.2241 0.0000 4.2535 -0.0000 -0.8629 2.6843 -3.1858 0.0000 3.4182 -0.0000 -3.0778 -5.7814 2.3900 0.0000 5.8086 -0.0000
 88.2255 92.8521 26.8709 -0.8633 -1.4633 5.1938 -2.4260 0.4174 0.6634 2.0014 -0.8035 -0.9634 0.9816 -2.0509 -0.7151 -0.0360 0.6183 -0.3509 -1.3663 1.0193 -7.3158 -5.0758 -0.2022 -13.4217 -13.8428 -4.2496 -1.0567 -77.5926 6.7578 -48.1354 0.0000 -7.5420 0.0000 -7.5872 4.6815 45.8076 12.2868 -6.6062 0.4869 76.3204 4.1031 59.2290 0.0000 -7.9509 0.0000 8.5434 9.4620 -26.6920 -0.8479 1.5369 1.3801 0.0000 9.1250 -0.0000 -0.7167 -12.6809 -8.5119 0.0000 4.5221 -0.0000 -0.1586 3.2709 -3.4719 0.0000 3.2905 -0.0000 -3.2290 -5.9865 3.0184 0.0000 5.8107 -0.0000
 87.9753 92.8343 27.0632 -1.0228 -1.8564 4.4736 -2.2224 1.0646 0.8240 1.8746 -0.8141 -0.8467 0.8313 -2.2132 -0.4796 0.0087 0.5727 -0.1448 -1.0903 0.2745 -7.2317 -4.7365 -0.2274 -13.6500 -13.2445 -3.8637 -0.8964 -77.6520 6.3872 -48.4048 -0.0000 -8.1069 -0.0000 -7.4133 4.9995 45.9281 12.1179 -6.5005 0.6454 77.2125 4.4380 59.4988 -0.0000 -8.3144 -0.0000 8.8636 9.4331 -26.2606 -0.5062 3.3503 2.3283 0.0000 6.4143 -0.0000 -0.9825 -11.8241 -8.6912 0.0000 4.8323 -0.0000 0.2182 4.2357 -3.3783 0.0000 2.5596 -0.0000 -3.3761 -5.9580 3.5988 0.0000 5.8373 -0.0000
 87.7860 92.8281 27.1099 -1.1447 -1.9580 3.4513 -1.9130 1.5174 0.8904 1.6770 -0.8474 -0.5970 0.6654 -2.2993 -0.0894 0.0407 0.5513 0.0956 -1.0206 -0.4531 -7.0990 -4.3865 -0.4303 -13.8350 -13.2021 -3.8834 -0.7091 -77.4379 5.9471 -47.9564 -0.0000 -7.8833 -0.0000 -7.3593 4.8642 45.6960 12.3212 -6.6740 0.8553 77.4702 4.6847 59.2851 0.0000 -8.4839 0.0000 9.3614 8.9408 -25.8501 -0.3385 4.0430 2.6699 0.0000 5.0561 -0.0000 -1.0415 -11.2797 -7.9679 0.0000 4.9525 -0.0000 0.4363 4.7925 -3.4157 0.0000 1.9236 -0.0000 -3.3781 -5.9039 4.6317 0.0000 5.8242 -0.0000
 87.6274 92.8702 27.0299 -1.3197 -1.5200 2.5816 -1.6668 1.3893 0.8700 1.6834 -0.8896 -0.3978 0.5688 -2.2594 0.2757 -0.0058 0.5335 0.2836 -1.1489 -1.0612 -7.0099 -4.1767 -0.8148 -13.9117 -13.3475 -4.0270 -0.5046 -77.1237 5.5550 -47.6318 0.0000 -7.6467 -0.0000 -7.3484 4.9045 45.6463 12.4881 -6.6818 1.0446 77.4663 4.7407 59.3595 0.0000 -8.3390 0.0000 9.4374 8.7629 -25.8051 -0.1551 3.4590 2.3460 0.0000 4.9449 -0.0000 -0.9292 -11.0180 -6.7658 0.0000 4.8782 -0.0000 0.6490 4.3084 -2.8894 0.0000 2.0319 -0.0000 -3.4280 -6.0002 4.9547 0.0000 5.7730 -0.0000
 87.4627 92.9426 26.7903 -1.4188 -0.4904 2.0415 -1.5506 0.7550 0.8822 1.6335 -0.9809 -0.2774 0.5729 -2.1867 0.4539 0.0544 0.4501 0.3596 -1.3656 -1.4567 -6.9466 -4.2622 -1.2990 -13.9642 -13.7265 -4.0087 -0.2149 -76.6106 5.3799 -47.5827 -0.0000 -7.6676 -0.0000 -7.2016 4.9272 45.7470 12.5216 -6.4835 1.0169 77.2810 4.7771 59.7313 0.0000 -8.0054 0.0000 9.2168 8.7576 -25.8852 -0.0094 1.7585 2.1254 0.0000 5.6846 -0.0000 -0.8394 -11.0280 -6.0444 0.0000 4.8945 -0.0000 0.7748 2.7374 -2.5985 0.0000 2.7793 -0.0000 -3.5088 -6.2018 5.1983 0.0000 5.7317 -0.0000
 87.2966 92.9886 26.5619 -1.4145 0.1894 1.9395 -1.4811 0.4543 0.9345 1.4405 -1.0819 -0.2490 0.6375 -2.0373 0.3785 0.1417 0.3774 0.3240 -1.4826 -1.7311 -6.9323 -4.3633 -1.8313 -13.9322 -14.0839 -4.2107 0.0926 -76.3194 5.3609 -47.3530 0.0000 -7.5216 -0.0000 -7.1458 4.6115 45.7710 12.5609 -6.3382 0.9001 77.0296 4.7186 59.8719 -0.0000 -7.6200 -0.0000 8.9263 8.7985 -25.2395 0.1023 0.4677 2.3794 0.0000 6.4684 -0.0000 -0.9328 -11.1368 -6.2230 0.0000 4.9837 -0.0000 0.8396 1.5439 -2.5174 0.0000 3.4284 -0.0000 -3.6186 -6.3198 5.2171 0.0000 5.7018 -0.0000
 87.1372 93.0093 26.3967 -1.3795 0.4883 2.1142 -1.5410 0.3941 0.9418 1.4190 -1.0814 -0.2934 0.6650 -1.8821 0.2666 0.1842 0.3437 0.2686 -1.5543 -1.9142 -6.9307 -4.2760 -2.1604 -13.8602 -14.3327 -4.2839 0.2837 -76.2389 5.4045 -47.2565 0.0000 -7.4467 0.0000 -7.1063 4.5025 45.9485 12.4891 -6.3413 0.6877 76.8560 4.5562 59.8235 0.0000 -7.4610 0.0000 8.9551 8.6550 -24.9984 0.2078 -0.1634 2.7838 0.0000 6.8981 -0.0000 -1.1259 -11.1981 -6.8354 0.0000 5.0232 -0.0000 0.9064 0.9945 -2.3287 0.0000 3.6140 -0.0000 -3.7498 -6.2405 4.8528 0.0000 5.6919 -0.0000
 86.9834 93.0184 26.3072 -1.3625 0.5766 2.4620 -1.5793 0.4296 0.9050 1.4513 -1.0335 -0.3582 0.6553 -1.8052 0.1530 0.1443 0.3649 0.1869 -1.4890 -1.9317 -7.0054 -4.1934 -2.2711 -13.7693 -14.3753 -4.1307 0.3857 -76.3015 5.4733 -47.3139 0.0000 -7.5680 -0.0000 -7.2553 4.4480 45.9697 12.4660 -6.3453 0.4866 76.6140 4.2021 59.5504 0.0000 -7.5773 0.0000 8.9565 8.6968 -25.0046 0.3021 -0.2544 2.7050 0.0000 6.8326 -0.0000 -1.3009 -11.1310 -7.1241 0.0000 5.0327 -0.0000 1.0018 0.8522 -2.3288 0.0000 3.4932 -0.0000 -3.8744 -6.0729 4.5050 0.0000 5.6968 -0.0000
 86.8351 93.0277 26.2580 -1.3626 0.6419 2.8068 -1.5667 0.4610 0.8734 1.4636 -1.0195 -0.4117 0.6129 -1.7940 0.0525 0.0759 0.3899 0.0940 -1.3208 -1.7587 -7.1226 -4.1223 -2.2434 -13.6887 -14.3152 -3.9414 0.3441 -76.4172 5.4447 -47.4498 -0.0000 -7.7469 -0.0000 -7.3886 4.4890 45.9534 12.4806 -6.2573 0.2770 76.3867 3.7726 59.2257 -0.0000 -7.7735 0.0000 8.8128 8.8844 -24.8378 0.3939 -0.1818 2.4638 0.0000 6.5409 -0.0000 -1.4301 -10.9975 -7.2370 0.0000 5.0371 -0.0000 1.1028 0.8033 -2.7613 0.0000 3.2918 -0.0000 -3.9859 -5.9291 4.5991 0.0000 5.7094 -0.0000
 86.7117 93.0396 26.2148 -1.3740 0.7188 3.0135 -1.4932 0.5124 0.8403 1.4141 -1.0562 -0.4368 0.5888 -1.7965 -0.0293 0.0337 0.3867 0.0266 -1.1658 -1.5371 -7.2055 -4.0264 -2.0648 -13.5950 -14.2077 -3.8620 0.3504 -76.5921 5.4619 -47.5347 0.0000 -7.9124 0.0000 -7.5872 4.4300 45.8008 12.4747 -6.1294 0.1031 76.1859 3.4177 59.0562 0.0000 -7.9855 0.0000 8.7097 9.0980 -24.5573 0.4869 -0.0946 2.4747 0.0000 6.1751 -0.0000 -1.5441 -10.8191 -7.4619 0.0000 5.0402 -0.0000 1.1986 0.7650 -3.1144 0.0000 3.0847 -0.0000 -4.0898 -5.7972 4.7550 0.0000 5.7068 -0.0000
